<svg width="708" height="354" viewBox="0 0 708 354" fill="none" xmlns="http://www.w3.org/2000/svg">
<rect x="354" width="354" height="354" fill="#023163"/>
<rect x="5" y="5" width="344" height="344" stroke="#023163" stroke-width="10"/>
<path d="M79.2789 231.963C82.6832 171.276 113.93 137.421 126.142 126.414C128.022 124.72 130.755 126.171 130.591 128.696L125.871 201.557C125.793 202.756 125.021 203.794 123.918 204.27C118.528 206.595 101.963 214.795 84.6228 234.035C82.7143 236.153 79.1192 234.809 79.2789 231.963Z" fill="#023163" stroke="#023163" stroke-width="5"/>
<path d="M224.032 84.896C224.823 85.4356 225.502 85.9071 226.058 86.2974C226.205 87.6915 226.417 89.7108 226.687 92.2749C227.237 97.52 228.023 105.045 228.967 114.162C230.855 132.398 233.371 157.003 235.888 182.482C240.657 230.77 245.373 281.71 245.887 298.8C233.226 306.636 214.86 311.587 195.911 312.773C175.807 314.031 156.01 310.993 142.582 303.577C128.634 295.875 120.438 287.73 115.573 277.748C110.635 267.616 108.841 255.021 108.841 237.824C108.841 206.891 112.98 185.643 118.321 163.613C119.283 159.642 120.288 155.635 121.316 151.537C126.005 132.836 131.176 112.215 135.048 84.2239C136.136 76.3541 138.362 70.8659 141.137 67.0855C143.87 63.3619 147.306 61.0577 151.301 59.776C159.576 57.1213 170.563 58.7719 182.29 62.9006C193.834 66.9647 205.213 73.1099 213.782 78.3062C218.047 80.893 221.576 83.2202 224.032 84.896Z" fill="white" stroke="#023163" stroke-width="10"/>
<path d="M277.501 314.448L250.934 301.481C250.934 301.481 195.549 270.911 195.549 214.807C186.555 215.651 167.456 241.316 159.54 252.49C158.088 254.541 154.978 254.035 154.404 251.589C150.425 234.639 141.929 184.38 165.339 133.169C158.335 103.862 156.515 94.9895 130.095 83.5389C122.164 80.1019 112.898 76.0769 105.807 72.9948C99.461 70.2368 98.2895 63.9212 104.958 62.0749C110.269 60.6043 118.222 59.4431 130.095 59.4431C135.489 54.7677 154.332 38 180.713 38C199.718 38 210.551 42.387 221.467 51.4635C241.445 68.0744 285.51 144.616 264.96 274.148C262.922 286.991 273.92 305.414 278.849 312.887C279.425 313.759 278.44 314.906 277.501 314.448Z" fill="#023163" stroke="#023163" stroke-width="5"/>
<path d="M169.295 73.8287C169.295 78.7943 165.27 82.8197 160.304 82.8197C155.339 82.8197 151.313 78.7943 151.313 73.8287C151.313 68.8631 155.339 64.8377 160.304 64.8377C165.27 64.8377 169.295 68.8631 169.295 73.8287Z" fill="white"/>
<path d="M169.295 73.8287C169.295 78.7943 165.27 82.8197 160.304 82.8197C155.339 82.8197 151.313 78.7943 151.313 73.8287C151.313 68.8631 155.339 64.8377 160.304 64.8377C165.27 64.8377 169.295 68.8631 169.295 73.8287Z" fill="white"/>
<circle cx="162.462" cy="75.2673" r="6.83315" fill="#023163"/>
<path d="M125.668 63.6055C122.251 63.176 116.382 63.4666 110.754 64.0198C103.331 64.7496 103.229 68.7658 110.238 71.3163C118.711 74.3993 127.481 77.7847 127.481 77.7847C127.481 77.7847 128.208 66.9983 125.668 63.6055Z" fill="#FFD133"/>
<path d="M463.534 86.8H446.398V112H435.394V53.368H446.398V77.728H463.534V53.368H474.538V112H463.534V86.8ZM496.345 53.368V89.908C496.345 92.092 496.401 94.052 496.513 95.788C496.681 97.524 497.045 99.008 497.605 100.24C498.221 101.416 499.117 102.34 500.293 103.012C501.525 103.684 503.205 104.02 505.333 104.02C507.461 104.02 509.113 103.684 510.289 103.012C511.521 102.34 512.417 101.416 512.977 100.24C513.593 99.008 513.957 97.524 514.069 95.788C514.237 94.052 514.321 92.092 514.321 89.908V53.368H525.325V88.228C525.325 92.372 525.073 95.984 524.569 99.064C524.065 102.144 523.085 104.72 521.629 106.792C520.173 108.864 518.129 110.432 515.497 111.496C512.921 112.504 509.533 113.008 505.333 113.008C501.133 113.008 497.717 112.504 495.085 111.496C492.509 110.432 490.493 108.864 489.037 106.792C487.581 104.72 486.601 102.144 486.097 99.064C485.593 95.984 485.341 92.372 485.341 88.228V53.368H496.345ZM555.028 113.008C549.988 113.008 545.676 112.14 542.092 110.404C538.564 108.668 535.68 106.372 533.44 103.516L540.076 96.628C542.26 99.148 544.612 101.024 547.132 102.256C549.708 103.432 552.452 104.02 555.364 104.02C558.724 104.02 561.3 103.264 563.092 101.752C564.884 100.24 565.78 98.056 565.78 95.2C565.78 92.848 565.108 91.084 563.764 89.908C562.42 88.676 560.152 87.808 556.96 87.304L550.744 86.296C545.312 85.344 541.448 83.384 539.152 80.416C536.856 77.392 535.708 73.836 535.708 69.748C535.708 64.148 537.528 59.864 541.168 56.896C544.808 53.872 549.848 52.36 556.288 52.36C560.88 52.36 564.828 53.088 568.132 54.544C571.492 56 574.18 57.988 576.196 60.508L569.728 67.396C568.16 65.548 566.284 64.092 564.1 63.028C561.916 61.908 559.34 61.348 556.372 61.348C549.988 61.348 546.796 63.98 546.796 69.244C546.796 71.484 547.468 73.192 548.812 74.368C550.156 75.544 552.452 76.412 555.7 76.972L561.832 78.064C566.928 79.016 570.708 80.892 573.172 83.692C575.636 86.492 576.868 90.076 576.868 94.444C576.868 97.188 576.392 99.708 575.44 102.004C574.488 104.244 573.088 106.204 571.24 107.884C569.392 109.508 567.096 110.768 564.352 111.664C561.664 112.56 558.556 113.008 555.028 113.008ZM611.527 62.44V112H600.607V62.44H582.967V53.368H629.167V62.44H611.527Z" fill="white"/>
<path d="M467.482 304L463.366 289.132H445.978L441.946 304H430.858L447.322 245.368H462.61L479.158 304H467.482ZM455.05 256.204H454.378L447.91 280.144H461.518L455.05 256.204ZM510.793 254.44V304H499.873V254.44H482.233V245.368H528.433V254.44H510.793ZM555.7 305.008C551.892 305.008 548.588 304.336 545.788 302.992C542.988 301.592 540.664 299.604 538.816 297.028C537.024 294.452 535.68 291.288 534.784 287.536C533.944 283.784 533.524 279.5 533.524 274.684C533.524 269.924 533.944 265.668 534.784 261.916C535.68 258.108 537.024 254.916 538.816 252.34C540.664 249.764 542.988 247.804 545.788 246.46C548.588 245.06 551.892 244.36 555.7 244.36C563.316 244.36 568.916 247.02 572.5 252.34C576.084 257.66 577.876 265.108 577.876 274.684C577.876 284.26 576.084 291.708 572.5 297.028C568.916 302.348 563.316 305.008 555.7 305.008ZM555.7 296.02C557.66 296.02 559.312 295.656 560.656 294.928C562 294.144 563.064 293.052 563.848 291.652C564.688 290.252 565.276 288.544 565.612 286.528C566.004 284.456 566.2 282.16 566.2 279.64V269.644C566.2 264.604 565.416 260.628 563.848 257.716C562.336 254.804 559.62 253.348 555.7 253.348C551.78 253.348 549.036 254.804 547.468 257.716C545.956 260.628 545.2 264.604 545.2 269.644V279.724C545.2 284.764 545.956 288.74 547.468 291.652C549.036 294.564 551.78 296.02 555.7 296.02ZM617.659 276.868L618.163 259.9H617.407L606.067 290.056L594.727 259.9H593.971L594.475 276.868V304H584.899V245.368H598.003L606.151 266.956H606.739L614.971 245.368H627.235V304H617.659V276.868Z" fill="white"/>
<path d="M454.966 209.008C451.158 209.008 447.854 208.336 445.054 206.992C442.254 205.592 439.93 203.604 438.082 201.028C436.29 198.452 434.946 195.288 434.05 191.536C433.21 187.784 432.79 183.5 432.79 178.684C432.79 173.924 433.21 169.668 434.05 165.916C434.946 162.108 436.29 158.916 438.082 156.34C439.93 153.764 442.254 151.804 445.054 150.46C447.854 149.06 451.158 148.36 454.966 148.36C462.582 148.36 468.182 151.02 471.766 156.34C475.35 161.66 477.142 169.108 477.142 178.684C477.142 188.26 475.35 195.708 471.766 201.028C468.182 206.348 462.582 209.008 454.966 209.008ZM454.966 200.02C456.926 200.02 458.578 199.656 459.922 198.928C461.266 198.144 462.33 197.052 463.114 195.652C463.954 194.252 464.542 192.544 464.878 190.528C465.27 188.456 465.466 186.16 465.466 183.64V173.644C465.466 168.604 464.682 164.628 463.114 161.716C461.602 158.804 458.886 157.348 454.966 157.348C451.046 157.348 448.302 158.804 446.734 161.716C445.222 164.628 444.466 168.604 444.466 173.644V183.724C444.466 188.764 445.222 192.74 446.734 195.652C448.302 198.564 451.046 200.02 454.966 200.02ZM486.853 208V149.368H509.113C514.825 149.368 519.193 150.992 522.217 154.24C525.241 157.488 526.753 161.912 526.753 167.512C526.753 173.112 525.241 177.536 522.217 180.784C519.193 184.032 514.825 185.656 509.113 185.656H497.857V208H486.853ZM497.857 176.668H506.845C509.813 176.668 511.941 176.08 513.229 174.904C514.517 173.672 515.161 171.74 515.161 169.108V165.916C515.161 163.284 514.517 161.38 513.229 160.204C511.941 158.972 509.813 158.356 506.845 158.356H497.857V176.668ZM537.472 208V149.368H574.516V158.44H548.476V173.728H573.592V182.8H548.476V198.928H574.516V208H537.472ZM596.743 165.916H595.903V208H586.495V149.368H600.019L615.391 191.452H616.231V149.368H625.639V208H612.115L596.743 165.916Z" fill="white"/>
</svg>
