<svg width="708" height="354" viewBox="0 0 708 354" fill="none" xmlns="http://www.w3.org/2000/svg">
<rect x="359" y="5" width="344" height="344" stroke="#023163" stroke-width="10"/>
<rect width="354" height="354" fill="#023163"/>
<path d="M86.8513 236.044L84.6778 234.085L86.8513 236.044C103.837 217.197 120.012 209.222 125.107 207.025C127.184 206.129 128.71 204.14 128.864 201.751L133.585 128.89C133.744 126.436 132.466 124.324 130.516 123.311C128.536 122.282 126.026 122.48 124.134 124.186C111.556 135.522 79.7466 170.062 76.2836 231.795C76.1213 234.689 77.9323 236.833 80.1043 237.663C82.2505 238.483 84.9779 238.122 86.8513 236.044Z" fill="#023163" stroke="white" stroke-width="6"/>
<path d="M103.841 237.824C103.841 174.887 120.744 151.151 130.095 83.5389C139.445 15.9267 230.794 83.5389 230.794 83.5389C230.794 83.5389 250.934 273.429 250.934 301.481C223.601 320.182 169.295 324.041 140.165 307.954C111.034 291.867 103.841 272.709 103.841 237.824Z" fill="white" stroke="#023163" stroke-width="10"/>
<path d="M249.484 304.107L249.55 304.143L249.618 304.177L276.185 317.144C278.12 318.089 280.022 317.277 281.016 316.124C282.005 314.976 282.52 313.003 281.354 311.235C278.935 307.569 275.057 301.256 272.043 294.333C268.977 287.292 267.045 280.149 267.923 274.618C278.265 209.427 272.364 157.46 261.291 119.618C250.256 81.906 234.007 57.9883 223.385 49.1567C217.721 44.4468 211.973 40.8695 205.104 38.493C198.254 36.1227 190.444 35 180.713 35C154.393 35 135.347 50.9254 128.971 56.4465C117.528 56.5174 109.627 57.6692 104.157 59.1837C102.063 59.7635 100.28 60.7781 99.0587 62.2777C97.8043 63.818 97.3042 65.6811 97.5224 67.5423C97.9433 71.1323 100.862 74.1166 104.611 75.7462C111.702 78.8284 120.97 82.8539 128.902 86.2915C141.905 91.9272 148.308 96.7036 152.464 103.263C156.668 109.9 158.773 118.599 162.183 132.867C138.898 184.639 147.469 235.172 151.483 252.274C152.701 257.463 159.177 258.193 161.988 254.224C165.927 248.664 172.613 239.55 179.404 231.744C182.804 227.834 186.17 224.325 189.183 221.767C190.449 220.692 191.613 219.819 192.657 219.162C193.999 246.144 207.632 267.029 221.061 281.243C228.143 288.739 235.219 294.436 240.526 298.261C243.181 300.175 245.401 301.626 246.965 302.602C247.747 303.091 248.367 303.461 248.795 303.712C249.01 303.838 249.177 303.934 249.293 303.999C249.35 304.032 249.396 304.058 249.428 304.076L249.466 304.097L249.477 304.103L249.481 304.106C249.483 304.106 249.484 304.107 250.934 301.481L249.484 304.107ZM278.817 311.752L278.809 311.748C278.811 311.749 278.814 311.751 278.817 311.752Z" fill="#023163" stroke="white" stroke-width="6"/>
<path d="M169.295 73.8287C169.295 78.7943 165.27 82.8197 160.304 82.8197C155.339 82.8197 151.313 78.7943 151.313 73.8287C151.313 68.8631 155.339 64.8377 160.304 64.8377C165.27 64.8377 169.295 68.8631 169.295 73.8287Z" fill="white"/>
<path d="M169.295 73.8287C169.295 78.7943 165.27 82.8197 160.304 82.8197C155.339 82.8197 151.313 78.7943 151.313 73.8287C151.313 68.8631 155.339 64.8377 160.304 64.8377C165.27 64.8377 169.295 68.8631 169.295 73.8287Z" fill="white"/>
<circle cx="162.462" cy="75.2673" r="6.83315" fill="#023163"/>
<path d="M125.668 63.6055C122.251 63.176 116.382 63.4666 110.754 64.0198C103.331 64.7496 103.229 68.7658 110.238 71.3163C118.711 74.3993 127.481 77.7847 127.481 77.7847C127.481 77.7847 128.208 66.9983 125.668 63.6055Z" fill="#FFD133"/>
<path d="M463.534 86.8H446.398V112H435.394V53.368H446.398V77.728H463.534V53.368H474.538V112H463.534V86.8ZM496.345 53.368V89.908C496.345 92.092 496.401 94.052 496.513 95.788C496.681 97.524 497.045 99.008 497.605 100.24C498.221 101.416 499.117 102.34 500.293 103.012C501.525 103.684 503.205 104.02 505.333 104.02C507.461 104.02 509.113 103.684 510.289 103.012C511.521 102.34 512.417 101.416 512.977 100.24C513.593 99.008 513.957 97.524 514.069 95.788C514.237 94.052 514.321 92.092 514.321 89.908V53.368H525.325V88.228C525.325 92.372 525.073 95.984 524.569 99.064C524.065 102.144 523.085 104.72 521.629 106.792C520.173 108.864 518.129 110.432 515.497 111.496C512.921 112.504 509.533 113.008 505.333 113.008C501.133 113.008 497.717 112.504 495.085 111.496C492.509 110.432 490.493 108.864 489.037 106.792C487.581 104.72 486.601 102.144 486.097 99.064C485.593 95.984 485.341 92.372 485.341 88.228V53.368H496.345ZM555.028 113.008C549.988 113.008 545.676 112.14 542.092 110.404C538.564 108.668 535.68 106.372 533.44 103.516L540.076 96.628C542.26 99.148 544.612 101.024 547.132 102.256C549.708 103.432 552.452 104.02 555.364 104.02C558.724 104.02 561.3 103.264 563.092 101.752C564.884 100.24 565.78 98.056 565.78 95.2C565.78 92.848 565.108 91.084 563.764 89.908C562.42 88.676 560.152 87.808 556.96 87.304L550.744 86.296C545.312 85.344 541.448 83.384 539.152 80.416C536.856 77.392 535.708 73.836 535.708 69.748C535.708 64.148 537.528 59.864 541.168 56.896C544.808 53.872 549.848 52.36 556.288 52.36C560.88 52.36 564.828 53.088 568.132 54.544C571.492 56 574.18 57.988 576.196 60.508L569.728 67.396C568.16 65.548 566.284 64.092 564.1 63.028C561.916 61.908 559.34 61.348 556.372 61.348C549.988 61.348 546.796 63.98 546.796 69.244C546.796 71.484 547.468 73.192 548.812 74.368C550.156 75.544 552.452 76.412 555.7 76.972L561.832 78.064C566.928 79.016 570.708 80.892 573.172 83.692C575.636 86.492 576.868 90.076 576.868 94.444C576.868 97.188 576.392 99.708 575.44 102.004C574.488 104.244 573.088 106.204 571.24 107.884C569.392 109.508 567.096 110.768 564.352 111.664C561.664 112.56 558.556 113.008 555.028 113.008ZM611.527 62.44V112H600.607V62.44H582.967V53.368H629.167V62.44H611.527Z" fill="#023163"/>
<path d="M467.482 304L463.366 289.132H445.978L441.946 304H430.858L447.322 245.368H462.61L479.158 304H467.482ZM455.05 256.204H454.378L447.91 280.144H461.518L455.05 256.204ZM510.793 254.44V304H499.873V254.44H482.233V245.368H528.433V254.44H510.793ZM555.7 305.008C551.892 305.008 548.588 304.336 545.788 302.992C542.988 301.592 540.664 299.604 538.816 297.028C537.024 294.452 535.68 291.288 534.784 287.536C533.944 283.784 533.524 279.5 533.524 274.684C533.524 269.924 533.944 265.668 534.784 261.916C535.68 258.108 537.024 254.916 538.816 252.34C540.664 249.764 542.988 247.804 545.788 246.46C548.588 245.06 551.892 244.36 555.7 244.36C563.316 244.36 568.916 247.02 572.5 252.34C576.084 257.66 577.876 265.108 577.876 274.684C577.876 284.26 576.084 291.708 572.5 297.028C568.916 302.348 563.316 305.008 555.7 305.008ZM555.7 296.02C557.66 296.02 559.312 295.656 560.656 294.928C562 294.144 563.064 293.052 563.848 291.652C564.688 290.252 565.276 288.544 565.612 286.528C566.004 284.456 566.2 282.16 566.2 279.64V269.644C566.2 264.604 565.416 260.628 563.848 257.716C562.336 254.804 559.62 253.348 555.7 253.348C551.78 253.348 549.036 254.804 547.468 257.716C545.956 260.628 545.2 264.604 545.2 269.644V279.724C545.2 284.764 545.956 288.74 547.468 291.652C549.036 294.564 551.78 296.02 555.7 296.02ZM617.659 276.868L618.163 259.9H617.407L606.067 290.056L594.727 259.9H593.971L594.475 276.868V304H584.899V245.368H598.003L606.151 266.956H606.739L614.971 245.368H627.235V304H617.659V276.868Z" fill="#023163"/>
<path d="M454.966 209.008C451.158 209.008 447.854 208.336 445.054 206.992C442.254 205.592 439.93 203.604 438.082 201.028C436.29 198.452 434.946 195.288 434.05 191.536C433.21 187.784 432.79 183.5 432.79 178.684C432.79 173.924 433.21 169.668 434.05 165.916C434.946 162.108 436.29 158.916 438.082 156.34C439.93 153.764 442.254 151.804 445.054 150.46C447.854 149.06 451.158 148.36 454.966 148.36C462.582 148.36 468.182 151.02 471.766 156.34C475.35 161.66 477.142 169.108 477.142 178.684C477.142 188.26 475.35 195.708 471.766 201.028C468.182 206.348 462.582 209.008 454.966 209.008ZM454.966 200.02C456.926 200.02 458.578 199.656 459.922 198.928C461.266 198.144 462.33 197.052 463.114 195.652C463.954 194.252 464.542 192.544 464.878 190.528C465.27 188.456 465.466 186.16 465.466 183.64V173.644C465.466 168.604 464.682 164.628 463.114 161.716C461.602 158.804 458.886 157.348 454.966 157.348C451.046 157.348 448.302 158.804 446.734 161.716C445.222 164.628 444.466 168.604 444.466 173.644V183.724C444.466 188.764 445.222 192.74 446.734 195.652C448.302 198.564 451.046 200.02 454.966 200.02ZM486.853 208V149.368H509.113C514.825 149.368 519.193 150.992 522.217 154.24C525.241 157.488 526.753 161.912 526.753 167.512C526.753 173.112 525.241 177.536 522.217 180.784C519.193 184.032 514.825 185.656 509.113 185.656H497.857V208H486.853ZM497.857 176.668H506.845C509.813 176.668 511.941 176.08 513.229 174.904C514.517 173.672 515.161 171.74 515.161 169.108V165.916C515.161 163.284 514.517 161.38 513.229 160.204C511.941 158.972 509.813 158.356 506.845 158.356H497.857V176.668ZM537.472 208V149.368H574.516V158.44H548.476V173.728H573.592V182.8H548.476V198.928H574.516V208H537.472ZM596.743 165.916H595.903V208H586.495V149.368H600.019L615.391 191.452H616.231V149.368H625.639V208H612.115L596.743 165.916Z" fill="#023163"/>
</svg>
