<svg width="217" height="284" viewBox="0 0 217 284" fill="none" xmlns="http://www.w3.org/2000/svg">
<path d="M14.2789 196.963C17.6832 136.276 48.9304 102.421 61.1421 91.4142C63.0219 89.7199 65.755 91.1706 65.5914 93.696L60.8707 166.557C60.7931 167.756 60.0215 168.794 58.9185 169.27C53.5283 171.595 36.963 179.795 19.6228 199.035C17.7143 201.153 14.1192 199.809 14.2789 196.963Z" fill="#1E1E1E" stroke="#1E1E1E" stroke-width="5"/>
<path d="M159.032 49.896C159.823 50.4356 160.502 50.9071 161.058 51.2974C161.205 52.6915 161.417 54.7108 161.687 57.2749C162.237 62.52 163.023 70.0447 163.967 79.1623C165.855 97.398 168.371 122.003 170.888 147.482C175.657 195.77 180.373 246.71 180.887 263.8C168.226 271.636 149.86 276.587 130.911 277.773C110.807 279.031 91.0101 275.993 77.5817 268.577C63.6336 260.875 55.4382 252.73 50.5734 242.748C45.6352 232.616 43.841 220.021 43.841 202.824C43.841 171.891 47.9801 150.643 53.3206 128.613C54.2834 124.642 55.288 120.635 56.3158 116.537C61.0053 97.8362 66.1765 77.215 70.0476 49.2239C71.136 41.3541 73.3619 35.8659 76.137 32.0855C78.8702 28.3619 82.306 26.0577 86.3012 24.776C94.5758 22.1213 105.563 23.7719 117.29 27.9006C128.834 31.9647 140.213 38.1099 148.782 43.3062C153.047 45.893 156.576 48.2202 159.032 49.896Z" fill="white" stroke="#1E1E1E" stroke-width="10"/>
<path d="M212.501 279.448L185.934 266.481C185.934 266.481 130.549 235.911 130.549 179.807C121.555 180.651 102.456 206.316 94.5403 217.49C93.0876 219.541 89.9779 219.035 89.4037 216.589C85.4251 199.639 76.9286 149.38 100.339 98.1692C93.3346 68.8619 91.5152 59.9895 65.0947 48.5389C57.1643 45.1019 47.898 41.0769 40.8068 37.9948C34.461 35.2368 33.2895 28.9212 39.9578 27.0749C45.2695 25.6043 53.2225 24.4431 65.0947 24.4431C70.4893 19.7677 89.332 3 115.713 3C134.718 3 145.551 7.38696 156.467 16.4635C176.445 33.0744 220.51 109.616 199.96 239.148C197.922 251.991 208.92 270.414 213.849 277.887C214.425 278.759 213.44 279.906 212.501 279.448Z" fill="#1E1E1E" stroke="#1E1E1E" stroke-width="5"/>
<path d="M104.295 38.8287C104.295 43.7943 100.27 47.8197 95.3044 47.8197C90.3389 47.8197 86.3134 43.7943 86.3134 38.8287C86.3134 33.8631 90.3389 29.8377 95.3044 29.8377C100.27 29.8377 104.295 33.8631 104.295 38.8287Z" fill="white"/>
<path d="M104.295 38.8287C104.295 43.7943 100.27 47.8197 95.3044 47.8197C90.3389 47.8197 86.3134 43.7943 86.3134 38.8287C86.3134 33.8631 90.3389 29.8377 95.3044 29.8377C100.27 29.8377 104.295 33.8631 104.295 38.8287Z" fill="white"/>
<circle cx="97.4623" cy="40.2673" r="6.83315" fill="#1E1E1E"/>
<path d="M60.6677 28.6055C57.2514 28.176 51.3816 28.4666 45.7538 29.0198C38.3305 29.7496 38.2287 33.7658 45.2381 36.3163C53.7111 39.3993 62.481 42.7847 62.481 42.7847C62.481 42.7847 63.2075 31.9983 60.6677 28.6055Z" fill="#FFD133"/>
</svg>
