<svg width="900" height="900" viewBox="0 0 900 900" fill="none" xmlns="http://www.w3.org/2000/svg">
<rect width="900" height="900" fill="white"/>
<path d="M100.709 537.572C104.76 436.772 158.738 382.905 175.469 368.56C177.39 366.912 180.133 368.4 179.969 370.925L172.43 487.286C172.352 488.485 171.586 489.52 170.476 489.98C163.157 493.015 134.943 506.211 106.057 539.607C104.192 541.763 100.595 540.42 100.709 537.572Z" fill="#023163" stroke="#023163" stroke-width="5"/>
<path d="M323.378 306.884C324.625 307.735 325.692 308.476 326.558 309.085C326.784 311.229 327.114 314.36 327.532 318.348C328.378 326.405 329.586 337.963 331.036 351.968C333.935 379.979 337.801 417.772 341.666 456.909C349 531.169 356.255 609.53 357.029 635.692C337.545 647.781 309.261 655.41 280.093 657.235C249.194 659.17 218.747 654.502 198.08 643.089C176.633 631.245 164.013 618.711 156.52 603.336C148.917 587.736 146.161 568.357 146.161 541.934C146.161 494.4 152.521 461.747 160.726 427.901C162.206 421.799 163.749 415.645 165.328 409.349C172.531 380.625 180.471 348.96 186.416 305.976C188.091 293.867 191.518 285.406 195.803 279.569C200.025 273.817 205.334 270.256 211.505 268.277C224.273 264.181 241.197 266.733 259.22 273.078C276.968 279.326 294.458 288.772 307.625 296.757C314.18 300.732 319.603 304.309 323.378 306.884Z" fill="white" stroke="#023163" stroke-width="15"/>
<path d="M407.358 660.582L364.597 639.711C364.597 639.711 279.526 592.756 279.526 506.579C264.906 507.95 232.905 552.018 222.273 567.22C220.832 569.28 217.738 568.791 217.123 566.354C211.526 544.176 195.501 463.48 233.123 381.181C222.364 336.165 219.569 322.537 178.987 304.949C164.38 298.618 146.824 290.989 135.614 286.116C129.269 283.357 127.71 276.716 134.112 274.091C141.789 270.942 155.317 267.937 178.987 267.937C187.273 260.756 216.215 235 256.737 235C285.929 235 302.569 241.738 319.337 255.68C350.023 281.195 417.707 398.764 386.141 597.727C382.83 618.6 401.936 649.069 408.696 659.056C409.281 659.921 408.296 661.04 407.358 660.582Z" fill="#023163" stroke="#023163" stroke-width="5"/>
<path d="M239.2 290.033C239.2 297.661 233.017 303.844 225.389 303.844C217.762 303.844 211.579 297.661 211.579 290.033C211.579 282.406 217.762 276.223 225.389 276.223C233.017 276.223 239.2 282.406 239.2 290.033Z" fill="white"/>
<path d="M239.2 290.033C239.2 297.661 233.017 303.844 225.389 303.844C217.762 303.844 211.579 297.661 211.579 290.033C211.579 282.406 217.762 276.223 225.389 276.223C233.017 276.223 239.2 282.406 239.2 290.033Z" fill="white"/>
<circle cx="228.704" cy="292.243" r="10.4958" fill="#023163"/>
<path d="M172.187 274.331C165.262 273.46 151.774 274.515 141.238 275.883C133.841 276.842 133.83 280.963 140.865 283.442C155.593 288.629 174.972 296.11 174.972 296.11C174.972 296.11 176.088 279.542 172.187 274.331Z" fill="#FFD133"/>
<path d="M473.856 335V241.56H489.856V279.064H514.944V241.56H530.944V335H514.944V293.912H489.856V335H473.856ZM579.15 336.28C570.019 336.28 562.851 333.805 557.646 328.856C552.526 323.821 549.966 316.995 549.966 308.376V241.56H566.094V308.248C566.094 312.685 567.203 316.141 569.422 318.616C571.641 321.091 574.883 322.328 579.15 322.328C583.331 322.328 586.531 321.091 588.75 318.616C591.054 316.141 592.206 312.685 592.206 308.248V241.56H608.334V308.376C608.334 316.995 605.774 323.821 600.654 328.856C595.534 333.805 588.366 336.28 579.15 336.28ZM656.156 336.28C649.756 336.28 644.209 335.213 639.516 333.08C634.823 330.947 631.196 327.917 628.636 323.992C626.161 319.981 624.881 315.288 624.796 309.912H640.796C640.796 313.752 642.161 316.781 644.892 319C647.708 321.133 651.505 322.2 656.284 322.2C660.892 322.2 664.476 321.133 667.036 319C669.681 316.867 671.004 313.923 671.004 310.168C671.004 307.011 670.065 304.28 668.188 301.976C666.396 299.587 663.793 297.965 660.38 297.112L649.628 294.168C642.289 292.291 636.615 288.92 632.604 284.056C628.679 279.192 626.716 273.304 626.716 266.392C626.716 261.101 627.911 256.493 630.3 252.568C632.689 248.643 636.06 245.613 640.412 243.48C644.849 241.347 650.055 240.28 656.028 240.28C665.073 240.28 672.241 242.627 677.532 247.32C682.823 251.928 685.511 258.157 685.596 266.008H669.596C669.596 262.339 668.401 259.48 666.012 257.432C663.623 255.299 660.252 254.232 655.9 254.232C651.719 254.232 648.476 255.213 646.172 257.176C643.868 259.139 642.716 261.912 642.716 265.496C642.716 268.739 643.569 271.512 645.276 273.816C647.068 276.035 649.628 277.613 652.956 278.552L664.092 281.624C671.516 283.501 677.191 286.872 681.116 291.736C685.041 296.515 687.004 302.445 687.004 309.528C687.004 314.819 685.724 319.512 683.164 323.608C680.604 327.619 677.02 330.733 672.412 332.952C667.804 335.171 662.385 336.28 656.156 336.28ZM724.586 335V256.408H700.138V241.56H765.162V256.408H740.714V335H724.586Z" fill="#023163"/>
<path d="M469.48 679L493.032 585.56H513.64L537.32 679H520.936L515.816 656.344H490.984L485.864 679H469.48ZM493.928 643.288H512.872L507.24 618.2C506.301 614.019 505.491 610.264 504.808 606.936C504.125 603.523 503.656 601.048 503.4 599.512C503.144 601.048 502.675 603.523 501.992 606.936C501.395 610.264 500.584 613.976 499.56 618.072L493.928 643.288ZM572.086 679V600.408H547.638V585.56H612.662V600.408H588.214V679H572.086ZM656.9 680.28C650.927 680.28 645.721 679.171 641.284 676.952C636.932 674.648 633.561 671.448 631.172 667.352C628.868 663.171 627.716 658.264 627.716 652.632V611.928C627.716 606.296 628.868 601.432 631.172 597.336C633.561 593.155 636.932 589.955 641.284 587.736C645.721 585.432 650.927 584.28 656.9 584.28C662.959 584.28 668.164 585.432 672.516 587.736C676.868 589.955 680.196 593.155 682.5 597.336C684.889 601.432 686.084 606.253 686.084 611.8V652.632C686.084 658.264 684.889 663.171 682.5 667.352C680.196 671.448 676.868 674.648 672.516 676.952C668.164 679.171 662.959 680.28 656.9 680.28ZM656.9 666.2C661.252 666.2 664.537 665.048 666.756 662.744C668.975 660.355 670.084 656.984 670.084 652.632V611.928C670.084 607.491 668.975 604.12 666.756 601.816C664.537 599.512 661.252 598.36 656.9 598.36C652.548 598.36 649.263 599.512 647.044 601.816C644.825 604.12 643.716 607.491 643.716 611.928V652.632C643.716 656.984 644.825 660.355 647.044 662.744C649.348 665.048 652.633 666.2 656.9 666.2ZM702.418 679V585.56H721.362L730.45 615.256C731.389 618.243 732.157 620.973 732.754 623.448C733.351 625.923 733.735 627.715 733.906 628.824C734.077 627.715 734.461 625.923 735.058 623.448C735.655 620.973 736.381 618.243 737.234 615.256L745.938 585.56H764.882V679H749.906V649.944C749.906 645.677 750.034 641.027 750.29 635.992C750.546 630.957 750.845 625.923 751.186 620.888C751.527 615.853 751.911 611.075 752.338 606.552C752.85 602.029 753.277 598.061 753.618 594.648L741.074 638.808H726.482L713.554 594.648C713.981 597.891 714.407 601.731 714.834 606.168C715.261 610.52 715.645 615.213 715.986 620.248C716.413 625.197 716.754 630.232 717.01 635.352C717.266 640.472 717.394 645.336 717.394 649.944V679H702.418Z" fill="#023163"/>
<path d="M502.4 508.28C496.427 508.28 491.221 507.171 486.784 504.952C482.432 502.648 479.061 499.448 476.672 495.352C474.368 491.171 473.216 486.264 473.216 480.632V439.928C473.216 434.296 474.368 429.432 476.672 425.336C479.061 421.155 482.432 417.955 486.784 415.736C491.221 413.432 496.427 412.28 502.4 412.28C508.459 412.28 513.664 413.432 518.016 415.736C522.368 417.955 525.696 421.155 528 425.336C530.389 429.432 531.584 434.253 531.584 439.8V480.632C531.584 486.264 530.389 491.171 528 495.352C525.696 499.448 522.368 502.648 518.016 504.952C513.664 507.171 508.459 508.28 502.4 508.28ZM502.4 494.2C506.752 494.2 510.037 493.048 512.256 490.744C514.475 488.355 515.584 484.984 515.584 480.632V439.928C515.584 435.491 514.475 432.12 512.256 429.816C510.037 427.512 506.752 426.36 502.4 426.36C498.048 426.36 494.763 427.512 492.544 429.816C490.325 432.12 489.216 435.491 489.216 439.928V480.632C489.216 484.984 490.325 488.355 492.544 490.744C494.848 493.048 498.133 494.2 502.4 494.2ZM550.606 507V413.56H581.71C587.939 413.56 593.358 414.755 597.966 417.144C602.659 419.533 606.286 422.904 608.846 427.256C611.406 431.523 612.686 436.557 612.686 442.36C612.686 448.077 611.363 453.112 608.718 457.464C606.158 461.816 602.574 465.187 597.966 467.576C593.358 469.965 587.939 471.16 581.71 471.16H566.606V507H550.606ZM566.606 456.696H581.71C586.147 456.696 589.689 455.416 592.334 452.856C595.065 450.211 596.43 446.712 596.43 442.36C596.43 437.923 595.065 434.424 592.334 431.864C589.689 429.304 586.147 428.024 581.71 428.024H566.606V456.696ZM628.764 507V413.56H684.828V427.512H644.508V451.832H680.348V465.656H644.508V493.048H684.828V507H628.764ZM703.466 507V413.56H723.05L749.034 489.08C748.778 486.349 748.479 483.149 748.138 479.48C747.882 475.725 747.669 471.928 747.498 468.088C747.327 464.163 747.242 460.749 747.242 457.848V413.56H761.834V507H742.25L716.522 431.48C716.693 433.955 716.906 436.941 717.162 440.44C717.418 443.939 717.631 447.523 717.802 451.192C717.973 454.861 718.058 458.232 718.058 461.304V507H703.466Z" fill="#023163"/>
</svg>
