<svg width="1000" height="1000" viewBox="0 0 1000 1000" fill="none" xmlns="http://www.w3.org/2000/svg">
<rect width="1000" height="1000" fill="#1E1E1E"/>
<rect width="1000" height="1000" fill="white"/>
<path d="M241.611 663.183C246.894 469.563 354.976 370.688 379.473 350.716C381.435 349.116 384.136 350.682 383.972 353.207L370.06 567.94C369.982 569.138 369.22 570.17 368.104 570.615C357.489 574.839 302.315 599.034 246.954 665.227C245.125 667.414 241.533 666.033 241.611 663.183Z" fill="black" stroke="black" stroke-width="5"/>
<path d="M652.902 242.179C653.267 242.439 653.598 242.676 653.893 242.888C653.992 243.824 654.121 245.051 654.28 246.553C654.685 250.393 655.28 256.036 656.036 263.245C657.549 277.663 659.711 298.346 662.305 323.407C667.494 373.531 674.411 441.163 681.329 511.202C694.882 648.43 708.378 794.372 708.959 836.441C672.403 860.588 618.362 875.402 563.313 878.848C507.136 882.364 450.874 873.982 411.983 852.505C372.572 830.741 348.501 807.192 334.127 777.699C319.68 748.056 314.742 711.842 314.742 664.152C314.742 578.207 326.269 519.078 341.04 458.147C343.706 447.15 346.48 436.085 349.313 424.787C362.192 373.422 376.276 317.251 386.845 240.834C389.976 218.189 396.486 201.62 405.192 189.76C413.856 177.956 424.871 170.573 437.501 166.521C463.045 158.326 495.527 163.67 528.237 175.186C560.765 186.638 592.616 203.864 616.411 218.295C628.29 225.499 638.121 231.981 644.976 236.658C648.402 238.996 651.083 240.881 652.902 242.179Z" fill="white" stroke="black" stroke-width="10"/>
<path d="M793.358 877.836L713.978 839.091C713.978 839.091 561.772 755.081 561.772 600.898C534.177 603.485 471.97 691.095 456.558 713.391C455.129 715.458 452.028 715.059 451.373 712.633C442.941 681.399 408.352 530.537 478.75 376.542C459.5 296 454.5 271.617 381.892 240.149C351.439 226.951 313.817 210.597 295.352 202.568C289.007 199.808 287.005 192.902 292.9 189.281C304.016 182.453 328.571 173.929 381.892 173.929C396.717 161.081 448.5 115 521 115C573.229 115 603 127.056 633 152C687.903 197.65 809 408 752.524 763.976C746.272 803.385 784.685 861.915 794.671 876.321C795.266 877.18 794.296 878.294 793.358 877.836Z" fill="black" stroke="black" stroke-width="5"/>
<path d="M489.622 213.463C489.622 227.11 478.56 238.172 464.914 238.172C451.267 238.172 440.205 227.11 440.205 213.463C440.205 199.817 451.267 188.755 464.914 188.755C478.56 188.755 489.622 199.817 489.622 213.463Z" fill="white"/>
<path d="M489.622 213.463C489.622 227.11 478.56 238.172 464.914 238.172C451.267 238.172 440.205 227.11 440.205 213.463C440.205 199.817 451.267 188.755 464.914 188.755C478.56 188.755 489.622 199.817 489.622 213.463Z" fill="white"/>
<circle cx="470.844" cy="217.417" r="18.7787" fill="black"/>
<path d="M369.726 185.369C354.693 183.479 323.799 187.137 305.487 190.529C298.153 191.888 298.353 196.423 305.426 198.792C331.018 207.367 374.709 224.335 374.709 224.335C374.709 224.335 376.706 194.692 369.726 185.369Z" fill="#FFD133"/>
</svg>
